<svg xmlns="http://www.w3.org/2000/svg" width="19.679" height="19.679" viewBox="0 0 19.679 19.679">
  <path id="Icon_material-block" data-name="Icon material-block" d="M12.839,3a9.839,9.839,0,1,0,9.839,9.839A9.843,9.843,0,0,0,12.839,3ZM4.968,12.839a7.869,7.869,0,0,1,7.872-7.872,7.775,7.775,0,0,1,4.821,1.663L6.631,17.661A7.775,7.775,0,0,1,4.968,12.839Zm7.872,7.872a7.775,7.775,0,0,1-4.821-1.663l11.03-11.03a7.775,7.775,0,0,1,1.663,4.821A7.869,7.869,0,0,1,12.839,20.711Z" transform="translate(-3 -3)" fill="#adadad"/>
</svg>
