<svg xmlns="http://www.w3.org/2000/svg" xmlns:xlink="http://www.w3.org/1999/xlink" width="238.387" height="117.743" viewBox="0 0 238.387 117.743">
  <defs>
    <clipPath id="clip-path">
      <rect id="Rectangle_125" data-name="Rectangle 125" width="238.387" height="117.743" fill="#ededed"/>
    </clipPath>
  </defs>
  <g id="Group_1403" data-name="Group 1403" clip-path="url(#clip-path)">
    <path id="Path_112" data-name="Path 112" d="M20.955,18.529,22.37,16.05a17.939,17.939,0,0,1,2.074-3.122,2.856,2.856,0,0,1,1.459-.871,2.616,2.616,0,0,1,1.437.09,19.138,19.138,0,0,1,2.49,1.276l4.461,2.545a12.143,12.143,0,0,1,2.2,1.472,1.993,1.993,0,0,1,.585,1.081,2.686,2.686,0,0,1-.112,1.252,10.351,10.351,0,0,1-.885,1.851L33.7,25.8Zm4.072-2.068,8.38,4.785q.408-.714.218-1.045a4.938,4.938,0,0,0-1.467-1.059l-4.951-2.825a7.739,7.739,0,0,0-1.143-.58.613.613,0,0,0-.5.049,1.9,1.9,0,0,0-.536.675" transform="translate(36.078 20.654)" fill="#ededed"/>
    <rect id="Rectangle_123" data-name="Rectangle 123" width="3.815" height="14.671" transform="translate(65.663 25.92) rotate(-49.273)" fill="#ededed"/>
    <path id="Path_113" data-name="Path 113" d="M26.8,9.253l4.9-4.055L33.567,7.46l-1.96,1.625,1.772,2.142,1.837-1.521L37,11.855l-1.834,1.521,2.058,2.485,2.156-1.788,1.873,2.264-5.1,4.216Z" transform="translate(46.133 8.949)" fill="#ededed"/>
    <path id="Path_114" data-name="Path 114" d="M40.874,7.168,37.491,8.934,36.312,6.675A4.455,4.455,0,0,0,35.561,5.5a.525.525,0,0,0-.6.005.56.56,0,0,0-.376.574,5.126,5.126,0,0,0,.558,1.345l3.152,6.039a4.736,4.736,0,0,0,.759,1.178.648.648,0,0,0,1-.523,5.389,5.389,0,0,0-.593-1.423L38.6,11.065,41.984,9.3l.264.509a11.221,11.221,0,0,1,1.211,3.01,3.293,3.293,0,0,1-.49,2.137,4.865,4.865,0,0,1-2.074,1.9,5.631,5.631,0,0,1-2.733.738,2.931,2.931,0,0,1-2.052-.825,10.981,10.981,0,0,1-1.81-2.7l-1.984-3.8a19.422,19.422,0,0,1-1-2.161,3.319,3.319,0,0,1-.133-1.658,3.64,3.64,0,0,1,.792-1.715,5.393,5.393,0,0,1,1.753-1.388,5.354,5.354,0,0,1,2.768-.708,3.114,3.114,0,0,1,2.03.773,9.767,9.767,0,0,1,1.7,2.523Z" transform="translate(53.604 4.532)" fill="#ededed"/>
    <path id="Path_115" data-name="Path 115" d="M41.9.663l5.77,13.666-3.778.972-.855-2.5-1.323.34.435,2.61-3.821.983L36.56,2.035Zm.392,9.64q-.9-2.343-2.1-5.824.486,4.23.827,6.151Z" transform="translate(62.945 1.141)" fill="#ededed"/>
    <path id="Path_116" data-name="Path 116" d="M50.01,4.616l-3.541.112-.035-1.086a2.156,2.156,0,0,0-.166-.966.5.5,0,0,0-.46-.191.577.577,0,0,0-.512.294,1.631,1.631,0,0,0-.15.86,2.459,2.459,0,0,0,.234,1.1,2.879,2.879,0,0,0,1.105.86,10.933,10.933,0,0,1,3.288,2.379,5.719,5.719,0,0,1,.759,3.105,5.5,5.5,0,0,1-.294,2.322,2.883,2.883,0,0,1-1.377,1.29,5.633,5.633,0,0,1-2.43.58,5.457,5.457,0,0,1-2.632-.5,2.841,2.841,0,0,1-1.464-1.429,7.6,7.6,0,0,1-.416-2.537l-.03-.958L45.43,9.74l.057,1.783a2.4,2.4,0,0,0,.182,1.056.586.586,0,0,0,.539.218.629.629,0,0,0,.558-.316,1.713,1.713,0,0,0,.155-.893A2.769,2.769,0,0,0,46.516,9.9,11.37,11.37,0,0,0,44.687,8.63,17.836,17.836,0,0,1,42.76,7.321a3.19,3.19,0,0,1-.8-1.154,5.127,5.127,0,0,1-.365-1.911,5.348,5.348,0,0,1,.351-2.477A2.894,2.894,0,0,1,43.3.517,5.527,5.527,0,0,1,45.6.005a6.039,6.039,0,0,1,2.548.4A2.646,2.646,0,0,1,49.572,1.57a6.415,6.415,0,0,1,.419,2.466Z" transform="translate(71.603 0)" fill="#ededed"/>
    <path id="Path_117" data-name="Path 117" d="M55.593,1.732l-.525,2.89-2.229-.408-2.1,11.545-3.753-.683,2.1-11.545-2.221-.4L47.39.238Z" transform="translate(80.687 0.409)" fill="#ededed"/>
    <rect id="Rectangle_124" data-name="Rectangle 124" width="2.991" height="2.765" transform="translate(135.401 17.206) rotate(-71.928)" fill="#ededed"/>
    <path id="Path_118" data-name="Path 118" d="M64.713,5.282,63.4,7.906,56.9,14.492l2.539,1.276L58.127,18.39l-6.284-3.157.958-1.9,6.935-7.264L57.419,4.9l1.32-2.624Z" transform="translate(89.257 3.921)" fill="#ededed"/>
    <path id="Path_119" data-name="Path 119" d="M65.092,16.033a31.132,31.132,0,0,1-2.036,2.381,3.494,3.494,0,0,1-3.443.9,5.4,5.4,0,0,1-1.957-1.04,5.511,5.511,0,0,1-1.413-1.619,3.524,3.524,0,0,1,.054-3.579,31.065,31.065,0,0,1,1.894-2.548l1.565-1.96q1.38-1.731,2.033-2.384a3.508,3.508,0,0,1,3.446-.9,5.383,5.383,0,0,1,1.957,1.034,5.6,5.6,0,0,1,1.413,1.622,3.485,3.485,0,0,1,.46,1.845,3.528,3.528,0,0,1-.514,1.736q-.482.772-1.894,2.545Zm.025-6.148a4.607,4.607,0,0,0,.729-1.094.454.454,0,0,0-.188-.514.529.529,0,0,0-.5-.106,3.38,3.38,0,0,0-.974.969l-4.273,5.354a6.817,6.817,0,0,0-.9,1.3.454.454,0,0,0,.193.536.469.469,0,0,0,.6.044,7.406,7.406,0,0,0,1.108-1.214Z" transform="translate(96.04 8.87)" fill="#ededed"/>
    <path id="Path_120" data-name="Path 120" d="M75.649,15.308,64.128,24.39l-2.071-2.626,4.009-5.688L60.829,20.2l-1.976-2.5L70.377,8.618l1.973,2.5-3.865,5.77L73.673,12.8Z" transform="translate(101.327 14.837)" fill="#ededed"/>
    <path id="Path_121" data-name="Path 121" d="M74.755,13.384l2.806,5.71-2.637,1.3L73.8,18.1l-2.5,1.227,1.053,2.139L69.85,22.7,68.8,20.561l-2.9,1.421L67.139,24.5l-2.637,1.3-2.915-5.939Z" transform="translate(106.034 23.043)" fill="#ededed"/>
    <path id="Path_122" data-name="Path 122" d="M32.3,39.77l6.374-1.432A49.6,49.6,0,0,1,35.9,32.008L21.06,33.823l.207.346c2.145,3.636,5.569,5.808,9.156,5.808A8.713,8.713,0,0,0,32.3,39.77" transform="translate(36.259 55.107)" fill="#ededed"/>
    <path id="Path_123" data-name="Path 123" d="M31.57,37.417l11.573-1.083a49.877,49.877,0,0,1-1.815-7.321l-24.751-.278.261.408c3.3,5.136,8.527,8.323,13.641,8.323.365,0,.732-.016,1.091-.049" transform="translate(28.539 49.472)" fill="#ededed"/>
    <path id="Path_124" data-name="Path 124" d="M69.223,43.018a50.419,50.419,0,0,1,.9-7.564L0,14.176l.49.634c8.546,11.077,21.1,19.52,31.974,21.507Z" transform="translate(0 24.406)" fill="#ededed"/>
    <path id="Path_125" data-name="Path 125" d="M33.588,34.718l-9.235,2.313.166.3c1.486,2.727,3.838,4.292,6.453,4.292a6.619,6.619,0,0,0,2.175-.373l3.84-1.331a50.1,50.1,0,0,1-3.4-5.2" transform="translate(41.928 59.773)" fill="#ededed"/>
    <path id="Path_126" data-name="Path 126" d="M52.22,37.267a50.434,50.434,0,0,1-.542-6.981c0-.316.041-.621.046-.934L10.115,23.06l.348.5C15.727,31.051,23.9,36.091,31.287,36.4Z" transform="translate(17.415 39.702)" fill="#ededed"/>
    <path id="Path_127" data-name="Path 127" d="M61.825,35.451a50.852,50.852,0,0,1,.893,7.566l36.762-6.7c10.881-1.987,23.431-10.43,31.974-21.507l.49-.634Z" transform="translate(106.443 24.406)" fill="#ededed"/>
    <path id="Path_128" data-name="Path 128" d="M62.544,30.286A50.506,50.506,0,0,1,62,37.27L82.935,36.4c7.387-.308,15.56-5.345,20.824-12.838l.348-.5L62.5,29.353c.005.316.046.621.046.934" transform="translate(106.748 39.702)" fill="#ededed"/>
    <path id="Path_129" data-name="Path 129" d="M61.25,36.335l11.573,1.083c.359.033.727.049,1.091.049,5.114,0,10.342-3.19,13.641-8.323l.261-.408-24.751.278a49.964,49.964,0,0,1-1.815,7.321" transform="translate(105.453 49.474)" fill="#ededed"/>
    <path id="Path_130" data-name="Path 130" d="M60.055,38.334l6.374,1.432a8.549,8.549,0,0,0,1.881.21c3.587,0,7.008-2.172,9.156-5.805l.207-.348L62.828,32.009a49.9,49.9,0,0,1-2.773,6.325" transform="translate(103.396 55.109)" fill="#ededed"/>
    <path id="Path_131" data-name="Path 131" d="M58.592,39.922l3.84,1.331a6.619,6.619,0,0,0,2.175.373c2.616,0,4.967-1.565,6.453-4.292l.166-.3-9.235-2.313a50.387,50.387,0,0,1-3.4,5.2" transform="translate(100.877 59.773)" fill="#ededed"/>
    <path id="Path_132" data-name="Path 132" d="M74,8.17a47.753,47.753,0,1,0,47.755,47.755A47.754,47.754,0,0,0,74,8.17m0,81.656a33.9,33.9,0,1,1,33.9-33.9A33.9,33.9,0,0,1,74,89.826" transform="translate(45.191 14.066)" fill="#c00"/>
    <path id="Path_133" data-name="Path 133" d="M61.753,15.285A28.389,28.389,0,1,0,90.14,43.672,28.389,28.389,0,0,0,61.753,15.285m-1.388,7.237a7.708,7.708,0,0,1,6.535-1.5,8.728,8.728,0,0,1,5.607,3.77,2.85,2.85,0,0,1-.049,3.046l-5.2,7.958a3.439,3.439,0,0,1-6.263-1.263L59.3,25.29a2.829,2.829,0,0,1,1.061-2.768m-15.652,5.37a8.715,8.715,0,0,1,6.069-2.969,2.851,2.851,0,0,1,2.613,1.565l4.292,8.481a3.441,3.441,0,0,1-4.227,4.793L44.609,36.6a2.827,2.827,0,0,1-1.867-2.3,7.7,7.7,0,0,1,1.971-6.407M44.13,55.449a7.7,7.7,0,0,1-4.564-4.91,8.728,8.728,0,0,1,.463-6.742,2.85,2.85,0,0,1,2.662-1.481l9.491.525A3.441,3.441,0,0,1,54.219,48.9l-7.163,6.083a2.821,2.821,0,0,1-2.926.465m19.011,9.374a7.7,7.7,0,0,1-6.535,1.5A8.721,8.721,0,0,1,51,62.55a2.845,2.845,0,0,1,.049-3.046l5.2-7.958a3.439,3.439,0,0,1,6.263,1.266L64.2,62.057a2.821,2.821,0,0,1-1.059,2.765M65.1,44.364a3.421,3.421,0,1,1-2.662-4.042A3.423,3.423,0,0,1,65.1,44.364m13.69,15.089a8.732,8.732,0,0,1-6.069,2.972,2.848,2.848,0,0,1-2.613-1.565l-4.292-8.484a3.441,3.441,0,0,1,4.227-4.793l8.851,3.16a2.831,2.831,0,0,1,1.867,2.3,7.707,7.707,0,0,1-1.97,6.407m2.022-14.425L71.322,44.5a3.439,3.439,0,0,1-2.036-6.056l7.163-6.086a2.827,2.827,0,0,1,2.926-.465,7.711,7.711,0,0,1,4.564,4.91,8.727,8.727,0,0,1-.463,6.742,2.853,2.853,0,0,1-2.662,1.481" transform="translate(57.441 26.315)" fill="#ededed"/>
  </g>
</svg>
