<svg xmlns="http://www.w3.org/2000/svg" xmlns:xlink="http://www.w3.org/1999/xlink" width="214.241" height="113.617" viewBox="0 0 214.241 113.617">
  <defs>
    <clipPath id="clip-path">
      <rect id="Rectangle_121" data-name="Rectangle 121" width="214.241" height="113.617" fill="none"/>
    </clipPath>
  </defs>
  <g id="Group_1402" data-name="Group 1402" transform="translate(0 0)">
    <text id="D" transform="matrix(0.496, -0.868, 0.868, 0.496, 61.391, 43.271)" fill="#212121" font-size="16" font-family="Impact"><tspan x="0" y="0">D</tspan></text>
    <text id="I" transform="matrix(0.652, -0.758, 0.758, 0.652, 66.95, 32.511)" fill="#212121" font-size="15" font-family="Impact"><tspan x="0" y="0">I</tspan></text>
    <text id="E" transform="matrix(0.77, -0.638, 0.638, 0.77, 72.706, 27.568)" fill="#212121" font-size="16" font-family="Impact"><tspan x="0" y="0">E</tspan></text>
    <g id="Group_1398" data-name="Group 1398" transform="translate(0 0)">
      <g id="Group_1397" data-name="Group 1397" clip-path="url(#clip-path)">
        <text id="C" transform="translate(80.129 21.621) rotate(-27.556)" fill="#212121" font-size="16" font-family="Impact"><tspan x="0" y="0">C</tspan></text>
        <text id="A" transform="matrix(0.968, -0.249, 0.249, 0.968, 90.827, 16.429)" fill="#212121" font-size="16" font-family="Impact"><tspan x="0" y="0">A</tspan></text>
        <text id="S" transform="matrix(0.999, -0.032, 0.032, 0.999, 101.606, 13.948)" fill="#212121" font-size="16" font-family="Impact"><tspan x="0" y="0">S</tspan></text>
        <text id="T" transform="translate(112.851 13.913) rotate(10.307)" fill="#212121" font-size="16" font-family="Impact"><tspan x="0" y="0">T</tspan></text>
        <text id="_." data-name="." transform="translate(122.686 12.933) rotate(18.078)" fill="#212121" font-size="13" font-family="Impact"><tspan x="0" y="0">.</tspan></text>
      </g>
    </g>
    <text id="Z" transform="matrix(0.894, 0.449, -0.449, 0.894, 127.224, 17.648)" fill="#212121" font-size="16" font-family="Impact"><tspan x="0" y="0">Z</tspan></text>
    <text id="O" transform="matrix(0.782, 0.624, -0.624, 0.782, 135.442, 21.942)" fill="#212121" font-size="16" font-family="Impact"><tspan x="0" y="0">O</tspan></text>
    <text id="N" transform="translate(144.411 29.489) rotate(51.753)" fill="#212121" font-size="16" font-family="Impact"><tspan x="0" y="0">N</tspan></text>
    <text id="E-2" data-name="E" transform="translate(151.349 38.924) rotate(63.837)" fill="#212121" font-size="16" font-family="Impact"><tspan x="0" y="0">E</tspan></text>
    <g id="Group_1400" data-name="Group 1400" transform="translate(0 0)">
      <g id="Group_1399" data-name="Group 1399" clip-path="url(#clip-path)">
        <path id="Path_100" data-name="Path 100" d="M31.164,39.589,36.893,38.3A44.573,44.573,0,0,1,34.4,32.613L21.06,34.244l.186.311c1.927,3.268,5,5.22,8.228,5.22a7.831,7.831,0,0,0,1.69-.186" transform="translate(30.453 47.157)" fill="#212121"/>
        <path id="Path_101" data-name="Path 101" d="M30.051,37.144l10.4-.974a44.826,44.826,0,0,1-1.631-6.58l-22.244-.249.235.367c2.965,4.616,7.663,7.48,12.259,7.48.328,0,.658-.015.981-.044" transform="translate(23.969 42.426)" fill="#212121"/>
        <path id="Path_102" data-name="Path 102" d="M62.212,40.7a45.313,45.313,0,0,1,.8-6.8L0,14.781l.44.57C8.121,25.306,19.4,32.894,29.176,34.679Z" transform="translate(0 21.372)" fill="#212121"/>
        <path id="Path_103" data-name="Path 103" d="M32.652,35.323l-8.3,2.079.149.272a6.685,6.685,0,0,0,5.8,3.857,5.948,5.948,0,0,0,1.954-.335L35.707,40a45.023,45.023,0,0,1-3.055-4.677" transform="translate(35.215 51.076)" fill="#212121"/>
        <path id="Path_104" data-name="Path 104" d="M47.955,36.434a45.326,45.326,0,0,1-.487-6.274c0-.284.037-.558.042-.839L10.115,23.666l.313.445c4.731,6.736,12.076,11.266,18.714,11.54Z" transform="translate(14.626 34.22)" fill="#212121"/>
        <path id="Path_105" data-name="Path 105" d="M61.825,33.9a45.631,45.631,0,0,1,.8,6.8l33.038-6.022c9.779-1.786,21.058-9.373,28.736-19.328l.44-.57Z" transform="translate(89.399 21.372)" fill="#212121"/>
        <path id="Path_106" data-name="Path 106" d="M62.489,30.162A45.355,45.355,0,0,1,62,36.436l18.812-.783c6.638-.276,13.984-4.806,18.714-11.54l.313-.448L62.447,29.32c0,.284.042.558.042.841" transform="translate(89.655 34.219)" fill="#212121"/>
        <path id="Path_107" data-name="Path 107" d="M61.25,36.17l10.4.974c.323.029.653.044.981.044,4.6,0,9.295-2.867,12.259-7.48l.235-.367-22.244.249a44.9,44.9,0,0,1-1.631,6.58" transform="translate(88.568 42.426)" fill="#212121"/>
        <path id="Path_108" data-name="Path 108" d="M60.055,38.3l5.729,1.287a7.831,7.831,0,0,0,1.69.186c3.224,0,6.3-1.952,8.228-5.217l.186-.313L62.547,32.614A45.029,45.029,0,0,1,60.055,38.3" transform="translate(86.84 47.159)" fill="#212121"/>
        <path id="Path_109" data-name="Path 109" d="M58.592,40l3.451,1.2A5.948,5.948,0,0,0,64,41.532a6.685,6.685,0,0,0,5.8-3.857l.149-.272-8.3-2.079A45.285,45.285,0,0,1,58.592,40" transform="translate(84.724 51.077)" fill="#212121"/>
        <path id="Path_110" data-name="Path 110" d="M69.166,8.776a42.916,42.916,0,1,0,42.918,42.918A42.917,42.917,0,0,0,69.166,8.776m0,73.385A30.469,30.469,0,1,1,99.633,51.694,30.468,30.468,0,0,1,69.166,82.161" transform="translate(37.955 12.689)" fill="#c00"/>
        <path id="Path_111" data-name="Path 111" d="M58.877,15.891A25.513,25.513,0,1,0,84.389,41.4,25.513,25.513,0,0,0,58.877,15.891m-1.247,6.5A6.927,6.927,0,0,1,63.5,21.05a7.844,7.844,0,0,1,5.039,3.388,2.562,2.562,0,0,1-.044,2.737l-4.674,7.152a3.091,3.091,0,0,1-5.628-1.135l-1.519-8.309a2.542,2.542,0,0,1,.954-2.488M43.563,27.221a7.832,7.832,0,0,1,5.455-2.669,2.562,2.562,0,0,1,2.348,1.406l3.857,7.622a3.092,3.092,0,0,1-3.8,4.307l-7.954-2.84a2.541,2.541,0,0,1-1.678-2.069,6.92,6.92,0,0,1,1.771-5.758m-.523,24.766a6.918,6.918,0,0,1-4.1-4.413,7.844,7.844,0,0,1,.416-6.059,2.562,2.562,0,0,1,2.392-1.331l8.529.472A3.093,3.093,0,0,1,52.107,46.1l-6.438,5.467a2.535,2.535,0,0,1-2.629.418m17.085,8.424a6.919,6.919,0,0,1-5.873,1.345,7.838,7.838,0,0,1-5.039-3.388,2.557,2.557,0,0,1,.044-2.737l4.674-7.152a3.091,3.091,0,0,1,5.628,1.137l1.517,8.309a2.535,2.535,0,0,1-.951,2.485m1.764-18.387A3.074,3.074,0,1,1,59.5,38.392a3.076,3.076,0,0,1,2.392,3.632m12.3,13.561a7.847,7.847,0,0,1-5.455,2.671,2.56,2.56,0,0,1-2.348-1.406l-3.857-7.624a3.092,3.092,0,0,1,3.8-4.307l7.954,2.84a2.544,2.544,0,0,1,1.678,2.069,6.926,6.926,0,0,1-1.771,5.758m1.817-12.964-8.532-.472a3.091,3.091,0,0,1-1.83-5.442l6.438-5.469a2.541,2.541,0,0,1,2.629-.418,6.93,6.93,0,0,1,4.1,4.413A7.843,7.843,0,0,1,78.4,41.29a2.564,2.564,0,0,1-2.392,1.331" transform="translate(48.243 22.977)" fill="#333"/>
      </g>
    </g>
  </g>
</svg>
