<svg xmlns="http://www.w3.org/2000/svg" width="21.312" height="17.049" viewBox="0 0 21.312 17.049">
  <path id="Icon_awesome-user-plus" data-name="Icon awesome-user-plus" d="M20.779,6.926H14.385a.534.534,0,0,0-.533.533V8.525a.534.534,0,0,0,.533.533h6.394a.534.534,0,0,0,.533-.533V7.459A.534.534,0,0,0,20.779,6.926Zm-13.32,1.6A4.262,4.262,0,1,0,3.2,4.262,4.262,4.262,0,0,0,7.459,8.525ZM10.443,9.59H9.887a5.8,5.8,0,0,1-4.855,0H4.475A4.477,4.477,0,0,0,0,14.066v1.385a1.6,1.6,0,0,0,1.6,1.6H13.32a1.6,1.6,0,0,0,1.6-1.6V14.066A4.477,4.477,0,0,0,10.443,9.59Z" fill="#adadad"/>
</svg>
