<svg xmlns="http://www.w3.org/2000/svg" width="101.699" height="116.248" viewBox="0 0 101.699 116.248">
  <path id="Icon_open-warning" data-name="Icon open-warning" d="M45.057,0a2.242,2.242,0,0,0-1.891,1.309L.391,100.389a8.471,8.471,0,0,0-.436,2.764v11.785a1.3,1.3,0,0,0,1.309,1.309h99.08a1.3,1.3,0,0,0,1.309-1.309V103.153a9.136,9.136,0,0,0-.436-2.764L58.443,1.309A2.072,2.072,0,0,0,56.551,0H45.057ZM43.748,43.647H58.3v29.1H43.748Zm0,43.647H58.3v14.549H43.748Z" transform="translate(0.045)" fill="#adadad"/>
</svg>
